# AST/ASF file generated using VICON BodyLanguage
# -----------------------------------------------
:version 1.10
:name VICON
:units
  mass 1.0
  length 0.45
  angle deg
:documentation
   .ast/.asf automatically generated from VICON data using
   VICON BodyBuilder and BodyLanguage model FoxedUp or BRILLIANT.MOD
:root
   order TX TY TZ RX RY RZ
   axis XYZ
   position 0 0 0  
   orientation 0 0 0 
:bonedata
  begin
     id 1 
     name lhipjoint
     direction 0.611804 -0.747784 0.257906 
     length 2.29243 
     axis 0 0 0  XYZ
  end
  begin
     id 2 
     name lfemur
     direction 0.34202 -0.939693 0  
     length 7.31159  
     axis 0 0 20  XYZ
    dof rx ry rz
    limits (-160.0 20.0)
           (-70.0 70.0)
           (-60.0 70.0)
  end
  begin
     id 3 
     name ltibia
     direction 0.34202 -0.939693 0   
     length 7.33391   
     axis 0 0 20   XYZ
    dof rx
    limits (-10.0 170.0)
  end
  begin
     id 4 
     name lfoot
     direction 0.122263 -0.335914 0.933924   
     length 1.76083   
     axis -90 7.62852e-016 20   XYZ
    dof rx rz
    limits (-45.0 90.0)
           (-70.0 20.0)
  end
  begin
     id 5 
     name ltoes
     direction 1.53533e-011 -4.2177e-011 1   
     length 0.879206   
     axis -90 7.62852e-016 20   XYZ
    dof rx
    limits (-90.0 20.0)
  end
  begin
     id 6 
     name rhipjoint
     direction -0.646469 -0.721248 0.248754   
     length 2.37677  
     axis 0 0 0  XYZ 
  end
  begin
     id 7 
     name rfemur
     direction -0.34202 -0.939693 0   
     length 7.18623   
     axis 0 0 -20   XYZ
    dof rx ry rz
    limits (-160.0 20.0)
           (-70.0 70.0)
           (-70.0 60.0)
  end
  begin
     id 8 
     name rtibia
     direction -0.34202 -0.939693 0   
     length 7.36567   
     axis 0 0 -20   XYZ
    dof rx
    limits (-10.0 170.0)
 end
 begin
     id 9 
     name rfoot
     direction -0.126681 -0.348054 0.928876   
     length 1.71902  
     axis -90 -7.62852e-016 -20   XYZ
    dof rx rz
    limits (-45.0 90.0)
           (-20.0 70.0)
  end
  begin
     id 10 
     name rtoes
     direction -1.53551e-011 -4.21898e-011 1   
     length 0.857792   
     axis -90 -7.62852e-016 -20   XYZ
    dof rx
    limits (-90.0 20.0)
  end
  begin
     id 11 
     name lowerback
     direction 0.0106509 0.999778 0.0181844   
     length 2.07668   
     axis 0 0 0   XYZ
    dof rx ry rz
    limits (-20.0 45.0)
           (-30.0 30.0)
           (-30.0 30.0)
  end
  begin
     id 12 
     name upperback
     direction -0.00456018 0.999989 -0.000590935   
     length 2.08011   
     axis 0 0 0   XYZ
    dof rx ry rz
    limits (-20.0 45.0)
           (-30.0 30.0)
           (-30.0 30.0)
  end
  begin
     id 13 
     name thorax
     direction -0.00910382 0.999916 -0.00923765   
     length 2.07397   
     axis 0 0 0   XYZ
    dof rx ry rz
    limits (-20.0 45.0)
           (-30.0 30.0)
           (-30.0 30.0)
  end
  begin
     id 14 
     name lowerneck
     direction 0.00171967 0.99778 0.0665733   
     length 1.67556   
     axis 0 0 0   XYZ
    dof rx ry rz
    limits (-20.0 45.0)
           (-30.0 30.0)
           (-30.0 30.0)
  end
  begin
     id 15 
     name upperneck
     direction -0.0143166 0.991302 -0.130828   
     length 1.68462   
     axis 0 0 0   XYZ
    dof rx ry rz
    limits (-20.0 45.0)
           (-30.0 30.0)
           (-30.0 30.0)
  end
  begin
     id 16
     name head
     direction -0.00606378 0.998665 -0.0512995  
     length 1.69269  
     axis 0 0 0   XYZ
    dof rx ry rz
    limits (-20.0 45.0)
           (-30.0 30.0)
           (-30.0 30.0)
  end
  begin
     id 17 
     name lclavicle
     direction 0.9638 0.179341 0.197297  
     length 4.12888  
     axis 0 0 0   XYZ
    dof ry rz
    limits (-20.0 10.0)
           (0.0 20.0)
  end
  begin
     id 18 
     name lhumerus
     direction 1 -4.48972e-011 -2.47351e-027   
     length 5.01834   
     axis -180 -30 -90   XYZ
    dof rx ry rz
    limits (-60.0 90.0)
           (-90.0 90.0)
           (-90.0 90.0)
  end
  begin
     id 19
     name lradius
     direction 1 -4.48965e-011 1.51591e-026   
     length 3.4869   
     axis -180 -30 -90   XYZ
    dof rx
    limits (-10.0 170.0)
  end
  begin
     id 20
     name lwrist
     direction 1 -4.48957e-011 2.70032e-026   
     length 1.74345   
     axis -1.81515e-014 90 90   XYZ
    dof ry
    limits (-180.0 0.0)
 end
  begin
     id 21 
     name lhand
     direction 1 -4.48951e-011 5.40064e-026   
     length 0.76799   
     axis -3.44607e-014 90 90   XYZ
    dof rx rz
    limits (-90.0 90.0)
           (-45.0 45.0)
  end
  begin
     id 22 
     name lfingers
     direction 1 -4.48971e-011 1.08013e-025   
     length 0.619174   
     axis -6.89214e-014 90 90   XYZ
    dof rx
    limits (0.0 90.0)
  end
  begin
     id 23
     name lthumb
     direction 0.707107 -6.34931e-011 0.707107   
     length 0.889013   
     axis -90 45 2.85299e-015   XYZ
    dof rx rz
    limits (-45.0 45.0)
           (-45.0 45.0)
  end
  begin
     id 24 
     name rclavicle
     direction -0.961409 0.252588 0.109054   
     length 4.04305  
     axis 0 0 0   XYZ 
    dof ry rz
    limits (-10.0 20.0)
           (-20.0 0.0)
  end
  begin
     id 25 
     name rhumerus
     direction -1 -4.4897e-011 1.33872e-017  
     length 4.70164   
     axis -180 30 90   XYZ
    dof rx ry rz
    limits (-90.0 60.0)
           (-90.0 90.0)
           (-90.0 90.0)
  end
  begin
     id 26 
     name rradius
     direction -1 -4.48954e-011 1.83844e-026   
     length 3.49911   
     axis -180 30 90   XYZ
    dof rx
    limits (-10.0 170.0)
  end
  begin
     id 27 
     name rwrist
     direction -1 -4.49008e-011 2.70032e-026   
     length 1.74955   
     axis -1.81515e-014 -90 -90   XYZ
    dof ry
    limits (-180.0 0.0)
  end
  begin
     id 28
     name rhand
     direction -1 -4.48916e-011 5.40064e-026   
     length 0.739335   
     axis -3.44607e-014 -90 -90   XYZ
    dof rx rz
    limits (-90.0 90.0)
           (-45.0 45.0)
  end
  begin
     id 29
     name rfingers
     direction -1 -4.48987e-011 1.08013e-025   
     length 0.596071   
     axis -6.89214e-014 -90 -90   XYZ
    dof rx
    limits (0.0 90.0)
  end
  begin
     id 30
     name rthumb
     direction -0.707107 -6.34935e-011 0.707107   
     length 0.855843   
     axis -90 -45 -2.85299e-015   XYZ
    dof rx rz
    limits (-45.0 45.0)
           (-45.0 45.0)
  end
:hierarchy
  begin
    root lhipjoint rhipjoint lowerback
    lhipjoint lfemur
    lfemur ltibia
    ltibia lfoot
    lfoot ltoes
    rhipjoint rfemur
    rfemur rtibia
    rtibia rfoot
    rfoot rtoes
    lowerback upperback
    upperback thorax
    thorax lowerneck lclavicle rclavicle
    lowerneck upperneck
    upperneck head
    lclavicle lhumerus
    lhumerus lradius
    lradius lwrist
    lwrist lhand lthumb
    lhand lfingers
    rclavicle rhumerus
    rhumerus rradius
    rradius rwrist
    rwrist rhand rthumb
    rhand rfingers
  end

#!OML:ASF I:\salsa\salsa 7_09\Patient 1\Session 1\dancermale.ASF
:FULLY-SPECIFIED
:DEGREES
599
root 7.54993 16.8059 5.09615 379.428 243.702 355.359
lowerback -6.34059 5.45075 2.47945
upperback -1.11547 7.08817 -0.807724
thorax 2.78442 3.54437 -1.57673
lowerneck -2.98178 7.98099 5.42649
upperneck 11.941 11.7539 -13.4659
head 5.1947 5.18404 -4.37326
rclavicle 3.75703e-014 1.59028e-014
rhumerus -52.4931 4.57806 -99.6682
rradius 109.788
rwrist 1.01084
rhand -72.2004 -6.93729
rfingers 7.12502
rthumb -43.668 -30.9429
lclavicle 3.75703e-014 1.59028e-014
lhumerus -7.2222 -17.1419 83.6138
lradius 48.4267
lwrist 53.8758
lhand -5.23672 44.7607
lfingers 7.12502
lthumb 20.566 73.6913
rfemur -10.8641 -10.3716 31.1255
rtibia 32.4747
rfoot -24.029 -27.4451
rtoes -1.17421
lfemur -45.521 9.71167 -28.2062
ltibia 45.0352
lfoot -20.9029 3.00483
ltoes -27.3691
600
root 7.60529 16.781 5.04346 380.125 244.934 355.147
lowerback -6.70915 5.75585 2.31832
upperback -1.50973 7.48227 -0.694644
thorax 2.565 3.72778 -1.3222
lowerneck -2.78653 7.69668 5.06776
upperneck 11.8466 11.3612 -13.2847
head 5.06138 5.00019 -4.29871
rclavicle 5.87409e-014 -2.78299e-014
rhumerus -50.2917 4.82395 -98.1641
rradius 108.069
rwrist 1.74775
rhand -71.7152 -14.4427
rfingers 7.12502
rthumb -43.2148 -38.6123
lclavicle 5.87409e-014 -2.78299e-014
lhumerus -9.37342 -19.6436 83.1354
lradius 50.7189
lwrist 55.5061
lhand -4.93301 45.0249
lfingers 7.12502
lthumb 20.8578 73.9237
rfemur -12.5258 -11.361 31.806
rtibia 34.3646
rfoot -23.792 -26.7136
rtoes -0.891873
lfemur -46.1561 10.6032 -29.8537
ltibia 47.6519
lfoot -21.7163 1.41493
ltoes -27.8116
601
root 7.62839 16.7609 4.98252 380.014 245.432 355.206
lowerback -6.98776 6.30638 2.16424
upperback -1.51469 8.21659 -0.66698
thorax 2.72046 4.09144 -1.105
lowerneck -2.97501 7.37537 5.17723
upperneck 11.8213 10.9249 -13.2999
head 5.04951 4.79044 -4.3475
rclavicle 2.74323e-014 -7.95139e-016
rhumerus -47.4568 4.66768 -96.6904
rradius 106.42
rwrist 1.47081
rhand -71.6056 -11.1799
rfingers 7.12502
rthumb -43.1124 -35.3861
lclavicle 2.74323e-014 -7.95139e-016
lhumerus -11.4148 -22.2111 82.8489
lradius 53.2621
lwrist 57.4839
lhand -4.80895 45.66
lfingers 7.12502
lthumb 20.977 74.5456
rfemur -13.5658 -12.2081 32.0895
rtibia 36.5169
rfoot -23.0325 -25.8574
rtoes -1.03529
lfemur -45.6667 11.2949 -30.8086
ltibia 49.3647
lfoot -22.2712 -0.547014
ltoes -26.7796
602
root 7.62542 16.7438 4.9203 379.243 245.533 355.568
lowerback -6.94457 6.84499 2.21817
upperback -1.47717 8.93118 -0.652289
thorax 2.76936 4.44829 -1.04581
lowerneck -2.97828 7.10221 5.4436
upperneck 11.7027 10.542 -13.3856
head 4.99376 4.62009 -4.447
rclavicle -3.53837e-014 -3.97569e-015
rhumerus -44.6439 4.5321 -95.6507
rradius 104.434
rwrist 1.35765
rhand -70.8556 -14.3807
rfingers 7.12502
rthumb -42.4107 -38.8317
lclavicle -3.53837e-014 -3.97569e-015
lhumerus -14.0554 -24.4356 82.8603
lradius 56.1164
lwrist 58.9949
lhand -4.68671 46.6771
lfingers 7.12502
lthumb 21.0944 75.5497
rfemur -14.2806 -13.1766 32.1107
rtibia 38.9859
rfoot -21.8657 -24.7897
rtoes -1.39329
lfemur -44.2856 11.8179 -31.1904
ltibia 50.1085
lfoot -22.3344 -2.34991
ltoes -25.6062
603
root 7.60951 16.7277 4.86021 378.305 245.873 356.007
lowerback -7.02948 7.10513 2.74733
upperback -1.33648 9.23954 -0.691916
thorax 3.06362 4.60972 -1.30955
lowerneck -2.74887 6.94517 5.46941
upperneck 11.3367 10.2806 -13.2232
head 4.80893 4.53057 -4.42819
rclavicle 1.71949e-014 2.38542e-015
rhumerus -41.4135 4.13471 -94.8748
rradius 102.43
rwrist 0.0877919
rhand -68.3173 -14.2089
rfingers 7.12502
rthumb -40.0279 -39.4266
lclavicle 1.71949e-014 2.38542e-015
lhumerus -16.9685 -26.037 82.9195
lradius 58.9911
lwrist 59.1482
lhand -3.03945 47.9792
lfingers 7.12502
lthumb 22.6761 76.6669
rfemur -15.0817 -14.5504 32.1238
rtibia 41.7853
rfoot -20.5852 -23.5677
rtoes -2.16919
lfemur -42.0157 11.2269 -30.6189
ltibia 48.8134
lfoot -23.5799 -6.06189
ltoes -10.0953
604
root 7.59294 16.7082 4.78568 377.312 245.467 356.638
lowerback -7.16834 7.44169 2.8582
upperback -1.32656 9.66954 -0.60404
thorax 3.1743 4.82314 -1.21047
lowerneck -2.44789 6.8951 5.36159
upperneck 11.1466 10.183 -13.0234
head 4.67397 4.50906 -4.36614
rclavicle 1.03368e-014 -2.06736e-014
rhumerus -38.119 3.81813 -94.2863
rradius 99.9637
rwrist -0.0138992
rhand -66.4979 -10.6408
rfingers 7.12502
rthumb -38.3131 -36.3541
lclavicle 1.03368e-014 -2.06736e-014
lhumerus -20.6079 -27.5877 83.7639
lradius 62.4684
lwrist 61.3928
lhand -4.93132 47.3114
lfingers 7.12502
lthumb 20.8594 76.21
rfemur -16.092 -15.3545 32.0135
rtibia 44.9479
rfoot -19.2076 -21.9302
rtoes -2.26718
lfemur -39.3245 11.1716 -30.0761
ltibia 45.0636
lfoot -24.9253 -3.68332
ltoes -10.8883
605
root 7.57466 16.6894 4.72276 377.634 245.829 356.292
lowerback -7.53727 7.53165 2.77484
upperback -1.54531 9.78014 -0.684149
thorax 3.15629 4.87125 -1.20205
lowerneck -2.51676 6.82715 5.4985
upperneck 11.4081 10.0879 -12.8241
head 4.7522 4.46739 -4.32959
rclavicle -1.23147e-013 -2.78299e-014
rhumerus -34.6146 3.21003 -93.7912
rradius 97.0684
rwrist -0.017733
rhand -64.0722 -8.04407
rfingers 7.12502
rthumb -36.0193 -34.3558
lclavicle -1.23147e-013 -2.78299e-014
lhumerus -24.425 -29.203 85.0483
lradius 65.7294
lwrist 63.1978
lhand -5.1787 46.1182
lfingers 7.12502
lthumb 20.6217 75.0428
rfemur -17.6919 -16.9904 31.6818
rtibia 48.228
rfoot -17.4693 -19.9618
rtoes -1.65855
lfemur -36.9239 10.3964 -30.0182
ltibia 41.4317
lfoot -25.9506 -2.02396
ltoes -9.42547
606
root 7.55842 16.6841 4.66783 378.586 246.435 355.294
lowerback -7.89345 7.52825 2.85886
upperback -1.6979 9.76981 -1.10001
thorax 3.28056 4.86614 -1.62983
lowerneck -3.2063 6.77057 5.72173
upperneck 12.0615 9.99792 -12.3275
head 5.04691 4.41516 -4.19088
rclavicle 2.85256e-014 -7.15625e-015
rhumerus -30.8703 1.96018 -93.842
rradius 93.7288
rwrist 0.433626
rhand -61.0872 -6.01838
rfingers 7.12502
rthumb -33.1862 -32.9791
lclavicle 2.85256e-014 -7.15625e-015
lhumerus -27.7265 -31.2024 86.1955
lradius 68.7772
lwrist 65.5595
lhand -5.24761 45.4068
lfingers 7.12502
lthumb 20.5555 74.3385
rfemur -19.5439 -18.9929 30.99
rtibia 51.9018
rfoot -15.1757 -17.8455
rtoes -3.43093
lfemur -35.5675 10.5358 -30.4899
ltibia 39.5815
lfoot -25.235 -2.42094
ltoes -8.39679
607
root 7.55018 16.6976 4.61394 379.337 246.876 354.17
lowerback -7.81189 7.38672 2.83284
upperback -1.7588 9.59694 -1.38561
thorax 3.20784 4.78143 -1.94223
lowerneck -4.0294 6.86488 5.48872
upperneck 12.8826 10.1169 -11.6003
head 5.40388 4.44841 -3.8848
rclavicle -3.84151e-014 -3.26007e-014
rhumerus -27.6555 1.20286 -94.2504
rradius 90.045
rwrist 1.76204
rhand -58.7236 -7.58298
rfingers 7.12502
rthumb -30.9359 -34.9966
lclavicle -3.84151e-014 -3.26007e-014
lhumerus -30.8895 -32.585 87.7039
lradius 71.6513
lwrist 67.9633
lhand -5.23462 44.9416
lfingers 7.12502
lthumb 20.568 73.8719
rfemur -21.2409 -20.7349 29.9158
rtibia 56.0578
rfoot -12.8068 -15.4246
rtoes -6.05678
lfemur -35.4311 8.67295 -30.4862
ltibia 39.7133
lfoot -24.201 -0.130952
ltoes -8.05709
608
root 7.55742 16.718 4.56666 380.088 247.746 353.16
lowerback -7.64788 7.02678 2.62206
upperback -1.87872 9.13296 -1.2949
thorax 2.91701 4.54472 -1.82749
lowerneck -3.14964 6.8231 6.17542
upperneck 12.0216 10.0429 -12.3351
head 5.05189 4.46316 -4.26528
rclavicle 3.73715e-014 -3.26007e-014
rhumerus -25.2779 1.24615 -94.5192
rradius 86.2356
rwrist 4.09629
rhand -57.7266 -11.2658
rfingers 7.12502
rthumb -29.985 -38.8558
lclavicle 3.73715e-014 -3.26007e-014
lhumerus -34.0329 -33.3474 90.0242
lradius 74.4653
lwrist 69.5245
lhand -5.20472 44.4679
lfingers 7.12502
lthumb 20.5967 73.3952
rfemur -23.8884 -22.6568 29.0408
rtibia 61.2913
rfoot -10.6183 -13.0278
rtoes -12.4647
lfemur -35.818 6.33168 -30.231
ltibia 40.7407
lfoot -23.7928 1.28136
ltoes -7.63525
609
root 7.57095 16.7345 4.51067 380.208 248.632 352.784
lowerback -7.35078 6.71933 2.51991
upperback -1.99399 8.73044 -1.07836
thorax 2.56179 4.33929 -1.64718
lowerneck -3.07145 6.68954 6.27829
upperneck 11.9527 9.86211 -12.4432
head 5.00964 4.37866 -4.33274
rclavicle -7.45443e-014 4.77083e-015
rhumerus -23.4596 0.349934 -94.9409
rradius 83.3968
rwrist 4.67687
rhand -54.8092 -10.0913
rfingers 7.12502
rthumb -27.1977 -38.1509
lclavicle -7.45443e-014 4.77083e-015
lhumerus -36.803 -34.257 92.6439
lradius 77.2648
lwrist 70.3034
lhand -5.87895 43.6746
lfingers 7.12502
lthumb 19.9487 72.6706
rfemur -26.4818 -24.2444 28.4725
rtibia 66.2311
rfoot -8.3411 -11.1299
rtoes -15.0666
lfemur -36.2963 4.74731 -29.7336
ltibia 42.0709
lfoot -24.0609 1.94747
ltoes -7.06834
610
root 7.55123 16.7506 4.46034 379.679 249.299 352.497
lowerback -6.85303 6.58132 2.82889
upperback -1.80982 8.54437 -1.00228
thorax 2.50098 4.25414 -1.80213
lowerneck -3.27357 6.50747 6.25065
upperneck 11.9775 9.6058 -12.3624
head 5.02107 4.2502 -4.31532
rclavicle -1.54555e-014 1.51076e-014
rhumerus -23.4816 0.489143 -95.1169
rradius 82.8258
rwrist 3.10475
rhand -52.5455 -10.7327
rfingers 7.12502
rthumb -25.0303 -39.1128
lclavicle -1.54555e-014 1.51076e-014
lhumerus -38.9221 -35.4686 95.2044
lradius 80.0592
lwrist 70.666
lhand -7.10179 42.6007
lfingers 7.12502
lthumb 18.7729 71.7149
rfemur -28.0297 -25.6133 27.28
rtibia 70.3646
rfoot -6.41123 -9.18264
rtoes -21.0844
lfemur -34.482 5.03321 -29.549
ltibia 40.8373
lfoot -23.9002 1.24671
ltoes -6.75437
611
root 7.53304 16.7656 4.41008 379.021 249.898 352.478
lowerback -6.48861 6.56953 3.36193
upperback -1.60708 8.51427 -1.09313
thorax 2.59825 4.2505 -2.2108
lowerneck -3.4297 6.26404 6.38194
upperneck 11.7318 9.23278 -12.2494
head 4.93652 4.08757 -4.32381
rclavicle -4.4975e-014 -8.74653e-015
rhumerus -23.3825 0.932566 -95.654
rradius 81.5083
rwrist 3.78798
rhand -54.9563 -13.1815
rfingers 7.12502
rthumb -27.3383 -41.219
lclavicle -4.4975e-014 -8.74653e-015
lhumerus -40.3872 -36.8774 97.6162
lradius 82.8461
lwrist 70.7153
lhand -8.46539 41.0703
lfingers 7.12502
lthumb 17.461 70.306
rfemur -29.3959 -26.3554 26.1377
rtibia 73.6523
rfoot -4.97075 -7.28742
rtoes -24.0648
lfemur -32.5191 5.45525 -29.2777
ltibia 39.2091
lfoot -23.6278 0.368009
ltoes -5.75623
612
root 7.52857 16.7861 4.35505 378.75 250.569 352.317
lowerback -6.21569 6.50529 3.6855
upperback -1.50895 8.42451 -1.18553
thorax 2.60277 4.21265 -2.51261
lowerneck -3.58122 6.04805 6.40394
upperneck 11.52 8.88354 -11.9169
head 4.84956 3.94288 -4.24329
rclavicle -3.09607e-014 -8.74653e-015
rhumerus -24.1712 1.85207 -96.0721
rradius 81.4632
rwrist 3.19658
rhand -55.7648 -15.3794
rfingers 7.12502
rthumb -28.1114 -43.2925
lclavicle -3.09607e-014 -8.74653e-015
lhumerus -41.3105 -38.1296 100.016
lradius 85.6905
lwrist 70.4397
lhand -11.2308 39.213
lfingers 7.12502
lthumb 14.7982 68.6647
rfemur -30.847 -26.4491 25.135
rtibia 76.2477
rfoot -5.19508 -8.29762
rtoes -20.4256
lfemur -31.1003 5.70201 -29.0058
ltibia 37.6564
lfoot -23.1824 -0.571825
ltoes -4.08466
613
root 7.52513 16.8187 4.26781 378.417 250.682 352.105
lowerback -5.86761 6.51923 3.2869
upperback -1.37879 8.48259 -1.11727
thorax 2.48152 4.24158 -2.25612
lowerneck -3.80368 5.84878 6.30485
upperneck 11.461 8.58109 -11.6436
head 4.82444 3.80309 -4.15625
rclavicle 2.6985e-014 2.46493e-014
rhumerus -25.2454 2.58462 -96.4754
rradius 81.7587
rwrist 2.68057
rhand -55.5112 -16.2208
rfingers 7.12502
rthumb -27.869 -44.1735
lclavicle 2.6985e-014 2.46493e-014
lhumerus -41.7146 -39.0844 102.444
lradius 88.7165
lwrist 69.7506
lhand -14.8458 39.0601
lfingers 7.12502
lthumb 11.3134 68.7349
rfemur -31.7298 -25.3564 23.9317
rtibia 77.713
rfoot -7.04026 -9.93505
rtoes -14.8028
lfemur -29.8673 5.06448 -28.5765
ltibia 36.5661
lfoot -22.6757 -0.135891
ltoes -3.35866
